# xmcd CD database file
#
# Track frame offsets:
#	150
#	21134
#	43569
#	65808
#	86710
#	105825
#	120172
#	140241
#	161646
#	179463
#	202860
#	225884
#	248079
#	264666
#
# Disc length: 3880 seconds
#
# Revision: 3
# Processed by: cddbd v1.5PL3 Copyright (c) Steve Scherf et al.
# Submitted via: CDex 1.50Beta7
#
DISCID=b30f260e
DTITLE=Southern All Stars - BALLAD 3 〜the album of LOVE〜 #DISC1
DYEAR=1900
DGENRE=Rock
TTITLE0=真夏の果実
TTITLE1=女神達への情歌 〜報道されないY型の彼方へ〜
TTITLE2=さよならベイビー
TTITLE3=逢いたくなった時に君はここにいない
TTITLE4=希望の轍
TTITLE5=忘れられたBIG WAVE
TTITLE6=せつない胸に風が吹いてた
TTITLE7=涙のキッス
TTITLE8=OH,GIRL 〜悲しい胸のスクリーン〜
TTITLE9=素敵なバーディー 〜No No Birdy〜
TTITLE10=冷たい夏
TTITLE11=HAIR
TTITLE12=慕情
TTITLE13=クリスマス・ラブ 〜涙のあとには白い雪が降る〜
EXTD=
EXTT0=
EXTT1=
EXTT2=
EXTT3=
EXTT4=
EXTT5=
EXTT6=
EXTT7=
EXTT8=
EXTT9=
EXTT10=
EXTT11=
EXTT12=
EXTT13=
PLAYORDER=
